<svg width="69" height="76" fill="none" xmlns="http://www.w3.org/2000/svg"><path fill-rule="evenodd" clip-rule="evenodd" d="M39.04 4.11a8 8 0 00-10.136.08L2.882 25.848A8 8 0 000 31.997v33.726a8 8 0 008 8h53a8 8 0 008-8V32.074a8 8 0 00-2.981-6.23L39.04 4.11z" fill="#286EFA"/><mask id="a" maskUnits="userSpaceOnUse" x="0" y="2" width="69" height="72"><path fill-rule="evenodd" clip-rule="evenodd" d="M39.04 4.11a8 8 0 00-10.136.08L2.882 25.848A8 8 0 000 31.997v33.726a8 8 0 008 8h53a8 8 0 008-8V32.074a8 8 0 00-2.981-6.23L39.04 4.11z" fill="#fff"/></mask><g mask="url(#a)"><path fill-rule="evenodd" clip-rule="evenodd" d="M10.658 8.78a2 2 0 012-2H55.78a2 2 0 012 2v62.436H10.658V8.779z" fill="#fff"/><path fill-rule="evenodd" clip-rule="evenodd" d="M54.214 45.91H16.018v2.482h38.196V45.91zm-24.643 6.204H16.018v2.482H29.57v-2.482z" fill="#286EFA"/><g filter="url(#filter0_d)"><path fill-rule="evenodd" clip-rule="evenodd" d="M-2.156 29.314c0 13.276 15.146 27.178 34.5 27.178 19.353 0 0 17.23 0 17.23h-34.5V29.315z" fill="#286EFA"/></g><g filter="url(#filter1_d)"><path fill-rule="evenodd" clip-rule="evenodd" d="M36.656 56.492c9.817-14.405 10.659-16.382 18.512-21.184 7.854-4.802 15.988-4.802 15.988-4.802v43.217H10.01s16.829-2.825 26.646-17.23z" fill="#286EFA"/></g></g><mask id="b" maskUnits="userSpaceOnUse" x="0" y="0" width="69" height="74"><path fill-rule="evenodd" clip-rule="evenodd" d="M33.939 0H8a8 8 0 00-8 8v57.723a8 8 0 008 8h53a8 8 0 008-8V8a8 8 0 00-8-8H33.939z" fill="#fff"/></mask><g mask="url(#b)"><path fill-rule="evenodd" clip-rule="evenodd" d="M10.658 8.78a2 2 0 012-2H55.78a2 2 0 012 2v19.007H10.658V8.78z" fill="#fff"/></g><path fill-rule="evenodd" clip-rule="evenodd" d="M30.117 38.187c-3.698 0-6.706-3.03-6.706-6.753v-8.55c0-3.724 3.008-6.753 6.706-6.753h8.49c3.699 0 6.707 3.03 6.707 6.752v8.551c0 3.724-3.008 6.753-6.706 6.753h-8.491zm4.245-14.916c-2.129 0-3.86 1.744-3.86 3.888s1.731 3.888 3.86 3.888c2.13 0 3.861-1.744 3.861-3.888s-1.732-3.888-3.86-3.888zm0 9.467c-3.055 0-5.54-2.503-5.54-5.579 0-3.076 2.485-5.58 5.54-5.58s5.54 2.504 5.54 5.58-2.485 5.58-5.54 5.58zm6.143-10.313c.797 0 1.443-.65 1.443-1.452 0-.803-.646-1.453-1.443-1.453-.796 0-1.442.65-1.442 1.453 0 .802.646 1.452 1.442 1.452z" fill="#286EFA"/><defs><filter id="filter0_d" x="-2.156" y="27.33" width="44.102" height="46.393" filterUnits="userSpaceOnUse" color-interpolation-filters="sRGB"><feFlood flood-opacity="0" result="BackgroundImageFix"/><feColorMatrix in="SourceAlpha" values="0 0 0 0 0 0 0 0 0 0 0 0 0 0 0 0 0 0 127 0"/><feOffset dx="1"/><feColorMatrix values="0 0 0 0 0.921569 0 0 0 0 0.921569 0 0 0 0 0.921569 0 0 0 1 0"/><feBlend in2="BackgroundImageFix" result="effect1_dropShadow"/><feBlend in="SourceGraphic" in2="effect1_dropShadow" result="shape"/></filter><filter id="filter1_d" x="9.01" y="30.506" width="62.146" height="43.217" filterUnits="userSpaceOnUse" color-interpolation-filters="sRGB"><feFlood flood-opacity="0" result="BackgroundImageFix"/><feColorMatrix in="SourceAlpha" values="0 0 0 0 0 0 0 0 0 0 0 0 0 0 0 0 0 0 127 0"/><feOffset dx="-1"/><feColorMatrix values="0 0 0 0 0.921569 0 0 0 0 0.921569 0 0 0 0 0.921569 0 0 0 1 0"/><feBlend in2="BackgroundImageFix" result="effect1_dropShadow"/><feBlend in="SourceGraphic" in2="effect1_dropShadow" result="shape"/></filter></defs></svg>