<?xml version="1.0" encoding="utf-8"?><svg viewBox="0 0 524 524" xmlns="http://www.w3.org/2000/svg" xmlns:xlink="http://www.w3.org/1999/xlink"><style>:root>svg{display:none}:root>svg:target{display:block}</style><svg fill="none" viewBox="0 0 6 9" id="arrow-left" xmlns="http://www.w3.org/2000/svg"><path d="M5 1L2 4.5 5 8" stroke="#939393" stroke-width="1.8" stroke-linecap="round"/></svg><svg fill="none" viewBox="0 0 6 9" id="arrow-right" xmlns="http://www.w3.org/2000/svg"><path d="M1 8l3-3.5L1 1" stroke="#939393" stroke-width="1.8" stroke-linecap="round"/></svg><svg viewBox="0 0 24 24" id="attach" xmlns="http://www.w3.org/2000/svg"><path d="M15.306 8.146A.967.967 0 0013.94 6.78l-7.823 7.823a3.045 3.045 0 000 4.301c.593.593 1.372.89 2.15.89.779 0 1.558-.297 2.15-.89l3.74-3.738 6.292-6.293a4.618 4.618 0 000-6.523 4.618 4.618 0 00-6.524 0l-8.638 8.638c-.016.015-.03.032-.044.048l-1.416 1.417a6.14 6.14 0 00-1.805 4.372c0 1.655.641 3.208 1.805 4.371A6.139 6.139 0 008.198 23a6.14 6.14 0 004.372-1.805l7.122-7.122a.967.967 0 00-1.367-1.367l-7.123 7.122a4.217 4.217 0 01-3.004 1.238c-1.14 0-2.206-.44-3.005-1.238a4.218 4.218 0 01-1.238-3.004c0-1.14.44-2.207 1.238-3.005l7.123-7.123c.015-.015.03-.032.043-.048l2.932-2.932a2.682 2.682 0 013.79 0 2.683 2.683 0 010 3.79l-2.208 2.206-7.823 7.824a1.109 1.109 0 01-1.567-1.567l7.823-7.823z" fill="#939393" fill-rule="nonzero"/></svg><svg viewBox="0 0 512 512" id="bell" xmlns="http://www.w3.org/2000/svg"><path d="M450.201 407.453c-1.505-.977-12.832-8.912-24.174-32.917-20.829-44.082-25.201-106.18-25.201-150.511 0-.193-.004-.384-.011-.576-.227-58.589-35.31-109.095-85.514-131.756V57.036C315.301 25.586 289.757 0 258.359 0h-4.719c-31.398 0-56.942 25.586-56.942 57.036v34.655c-50.372 22.734-85.525 73.498-85.525 132.334 0 44.331-4.372 106.428-25.201 150.511-11.341 24.004-22.668 31.939-24.174 32.917-6.342 2.935-9.469 9.715-8.01 16.586 1.473 6.939 7.959 11.723 15.042 11.723h109.947C179.391 477.903 213.785 512 256 512s76.609-34.097 77.223-76.238H443.17c7.082 0 13.569-4.784 15.042-11.723 1.457-6.871-1.669-13.652-8.011-16.586zM226.699 57.036c0-14.881 12.086-26.987 26.942-26.987h4.719c14.856 0 26.942 12.106 26.942 26.987v24.917a144.658 144.658 0 00-29.306-2.987A144.695 144.695 0 00226.7 81.95V57.036zM256 481.951c-25.673 0-46.614-20.617-47.223-46.188h94.445c-.608 25.57-21.549 46.188-47.222 46.188zm60.4-76.239H103.015c2.595-4.044 5.236-8.623 7.861-13.798 20.104-39.643 30.298-96.129 30.298-167.889 0-63.417 51.509-115.01 114.821-115.01s114.821 51.593 114.821 115.06c0 .185.003.369.01.553.057 71.472 10.25 127.755 30.298 167.286 2.625 5.176 5.267 9.754 7.861 13.798z"/></svg><svg fill="#939393" viewBox="0 0 512 512" id="bell-grey" xmlns="http://www.w3.org/2000/svg"><path d="M450.201 407.453c-1.505-.977-12.832-8.912-24.174-32.917-20.829-44.082-25.201-106.18-25.201-150.511 0-.193-.004-.384-.011-.576-.227-58.589-35.31-109.095-85.514-131.756V57.036C315.301 25.586 289.757 0 258.359 0h-4.719c-31.398 0-56.942 25.586-56.942 57.036v34.655c-50.372 22.734-85.525 73.498-85.525 132.334 0 44.331-4.372 106.428-25.201 150.511-11.341 24.004-22.668 31.939-24.174 32.917-6.342 2.935-9.469 9.715-8.01 16.586 1.473 6.939 7.959 11.723 15.042 11.723h109.947C179.391 477.903 213.785 512 256 512s76.609-34.097 77.223-76.238H443.17c7.082 0 13.569-4.784 15.042-11.723 1.457-6.871-1.669-13.652-8.011-16.586zM226.699 57.036c0-14.881 12.086-26.987 26.942-26.987h4.719c14.856 0 26.942 12.106 26.942 26.987v24.917a144.658 144.658 0 00-29.306-2.987A144.695 144.695 0 00226.7 81.95V57.036zM256 481.951c-25.673 0-46.614-20.617-47.223-46.188h94.445c-.608 25.57-21.549 46.188-47.222 46.188zm60.4-76.239H103.015c2.595-4.044 5.236-8.623 7.861-13.798 20.104-39.643 30.298-96.129 30.298-167.889 0-63.417 51.509-115.01 114.821-115.01s114.821 51.593 114.821 115.06c0 .185.003.369.01.553.057 71.472 10.25 127.755 30.298 167.286 2.625 5.176 5.267 9.754 7.861 13.798z"/></svg><svg fill="none" viewBox="0 0 9 6" id="caret" xmlns="http://www.w3.org/2000/svg"><path d="M1 1l3.5 3L8 1" stroke="#939393" stroke-width="1.8" stroke-linecap="round"/></svg><svg viewBox="0 0 477.867 477.867" id="chat" xmlns="http://www.w3.org/2000/svg"><path d="M426.667.002H51.2C22.923.002 0 22.925 0 51.202v273.067c0 28.277 22.923 51.2 51.2 51.2h60.587l-9.284 83.456c-1.035 9.369 5.721 17.802 15.09 18.837a17.07 17.07 0 0013.292-4.279l108.919-98.014h186.863c28.277 0 51.2-22.923 51.2-51.2V51.202c0-28.277-22.923-51.2-51.2-51.2zm17.066 324.267c0 9.426-7.641 17.067-17.067 17.067H233.25a17.07 17.07 0 00-11.418 4.386l-80.452 72.414 6.434-57.839c1.046-9.367-5.699-17.809-15.067-18.856-.63-.07-1.263-.106-1.897-.105H51.2c-9.426 0-17.067-7.641-17.067-17.067V51.202c0-9.426 7.641-17.067 17.067-17.067h375.467c9.426 0 17.067 7.641 17.067 17.067v273.067z"/></svg><svg viewBox="0 0 512 512" id="day-off" xmlns="http://www.w3.org/2000/svg"><path d="M494.949 100h-35.43l50.048-76.812A14.997 14.997 0 00497 0h-66.711c-8.284 0-15 6.716-15 15s6.716 15 15 15h39.034l-50.048 76.812a15 15 0 0012.568 23.189h63.107c8.284 0 15-6.716 15-15S503.233 100 494.949 100zM400.188 67.853A15.002 15.002 0 00387 60h-46.698c-8.284 0-15 6.716-15 15s6.716 15 15 15h19.021l-30.501 46.812a15 15 0 0012.568 23.189h44.175c8.284 0 15-6.716 15-15s-6.716-15-15-15h-16.498l30.501-46.812a15.002 15.002 0 00.62-15.336zM190 132C85.234 132 0 217.233 0 322s85.234 190 190 190 190-85.233 190-190-85.234-190-190-190zm0 350c-88.224 0-160-71.775-160-160s71.776-160 160-160 160 71.775 160 160-71.776 160-160 160z"/><path d="M167.145 275.804c4.862-6.708 3.366-16.087-3.342-20.948-6.708-4.863-16.085-3.367-20.948 3.341C136.403 267.098 128.286 272 120 272s-16.403-4.902-22.855-13.804c-4.863-6.708-14.242-8.204-20.948-3.341-6.708 4.861-8.204 14.24-3.342 20.948C84.923 292.452 102.106 302 120 302s35.077-9.548 47.145-26.196zM282.855 258.196C276.403 267.098 268.286 272 260 272s-16.403-4.902-22.855-13.804c-4.863-6.708-14.242-8.204-20.948-3.341-6.708 4.861-8.204 14.24-3.342 20.948C224.923 292.452 242.106 302 260 302s35.077-9.548 47.145-26.196c4.862-6.708 3.366-16.087-3.342-20.948-6.706-4.864-16.086-3.368-20.948 3.34zM190 337c-12.664 0-24.769 6.457-33.213 17.716C149.186 364.85 145 378.091 145 392s4.186 27.15 11.787 37.284C165.231 440.543 177.336 447 190 447s24.769-6.457 33.213-17.716C230.814 419.15 235 405.909 235 392s-4.186-27.15-11.787-37.284C214.769 343.457 202.664 337 190 337zm0 80c-7.081 0-15-10.691-15-25s7.919-25 15-25 15 10.691 15 25-7.919 25-15 25z"/></svg><svg fill="none" viewBox="0 0 12 9" id="double-arrow-left" xmlns="http://www.w3.org/2000/svg"><path d="M5 1L2 4.5 5 8M11 1L8 4.5 11 8" stroke="#939393" stroke-width="1.8" stroke-linecap="round"/></svg><svg fill="none" viewBox="0 0 12 9" id="double-arrow-right" xmlns="http://www.w3.org/2000/svg"><path d="M7 8l3-3.5L7 1M1 8l3-3.5L1 1" stroke="#939393" stroke-width="1.8" stroke-linecap="round"/></svg><svg viewBox="0 0 512 512" id="exit" xmlns="http://www.w3.org/2000/svg"><path d="M255.15 468.625H63.787c-11.737 0-21.262-9.526-21.262-21.262V64.638c0-11.737 9.526-21.262 21.262-21.262H255.15c11.758 0 21.262-9.504 21.262-21.262S266.908.85 255.15.85H63.787C28.619.85 0 29.47 0 64.638v382.724c0 35.168 28.619 63.787 63.787 63.787H255.15c11.758 0 21.262-9.504 21.262-21.262 0-11.758-9.504-21.262-21.262-21.262z"/><path d="M505.664 240.861L376.388 113.286c-8.335-8.25-21.815-8.143-30.065.213s-8.165 21.815.213 30.065l92.385 91.173H191.362c-11.758 0-21.262 9.504-21.262 21.262 0 11.758 9.504 21.263 21.262 21.263h247.559l-92.385 91.173c-8.377 8.25-8.441 21.709-.213 30.065a21.255 21.255 0 0015.139 6.336c5.401 0 10.801-2.041 14.926-6.124l129.276-127.575A21.303 21.303 0 00512 255.998c0-5.696-2.275-11.118-6.336-15.137z"/></svg><svg stroke="#939393" viewBox="-4 0 393 393.99" id="filter" xmlns="http://www.w3.org/2000/svg"><path fill="#939393" d="M368.313 0H17.05A16.5 16.5 0 002.344 8.96a16.732 16.732 0 001.3 17.415l128.688 181.281c.043.063.09.121.133.184a36.769 36.769 0 017.219 21.816v147.797a16.429 16.429 0 0016.433 16.535c2.227 0 4.426-.445 6.48-1.297l72.313-27.574c6.48-1.976 10.781-8.09 10.781-15.453V229.656a36.774 36.774 0 017.215-21.816c.043-.063.09-.121.133-.184L381.723 26.367a16.717 16.717 0 001.3-17.406A16.502 16.502 0 00368.313 0zM236.78 195.992a56.931 56.931 0 00-11.097 33.664v117.578l-66 25.164V229.656a56.909 56.909 0 00-11.102-33.664L23.648 20h338.07zm0 0"/></svg><svg viewBox="0 0 551.13 551.13" id="history" xmlns="http://www.w3.org/2000/svg"><path d="M275.531 172.228l-.05 120.493c0 4.575 1.816 8.948 5.046 12.177l86.198 86.181 24.354-24.354-81.153-81.136.05-113.361z"/><path d="M310.011 34.445c-121.23 0-221.563 90.033-238.367 206.674H0l86.114 86.114 86.114-86.114h-65.78C122.925 143.53 207.803 68.891 310.011 68.891c113.966 0 206.674 92.707 206.674 206.674s-92.707 206.674-206.674 206.674c-64.064 0-123.469-28.996-162.978-79.555l-27.146 21.192c46.084 58.968 115.379 92.808 190.124 92.808 132.955 0 241.119-108.181 241.119-241.119S442.966 34.446 310.011 34.445z"/></svg><svg fill="none" viewBox="0 0 26 7" id="line-arrow-right" xmlns="http://www.w3.org/2000/svg"><path d="M26 3.5L21 .613v5.774L26 3.5zM0 4h21.5V3H0v1z" fill="#979797"/></svg><svg fill="#286EFA" viewBox="0 0 512 512" id="mark-blue" xmlns="http://www.w3.org/2000/svg"><path d="M504.502 75.496c-9.997-9.998-26.205-9.998-36.204 0L161.594 382.203 43.702 264.311c-9.997-9.998-26.205-9.997-36.204 0-9.998 9.997-9.998 26.205 0 36.203l135.994 135.992c9.994 9.997 26.214 9.99 36.204 0L504.502 111.7c9.998-9.997 9.997-26.206 0-36.204z"/></svg><svg fill="#939393" viewBox="0 0 512.001 512.001" id="pen" xmlns="http://www.w3.org/2000/svg"><path d="M507.607 89.247L422.754 4.394a14.998 14.998 0 00-21.212 0L38.916 367.018a14.993 14.993 0 00-3.803 6.439L.591 492.833a14.995 14.995 0 003.803 14.773 14.996 14.996 0 0014.773 3.803l119.376-34.523a14.997 14.997 0 006.439-3.803L507.607 110.46c5.858-5.858 5.858-15.355 0-21.213zM126.501 449.14l-89.533 25.893 25.892-89.532 7.877-7.877 63.64 63.64-7.876 7.876zm29.088-29.089l-63.64-63.64 254.559-254.558 63.64 63.64-254.559 254.558zM431.361 144.28l-63.64-63.64 44.427-44.427 63.64 63.64-44.427 44.427z"/></svg><svg fill="#939393" viewBox="0 0 59 59" id="pin" xmlns="http://www.w3.org/2000/svg"><path d="M44.5 15c0-8.271-6.729-15-15-15s-15 6.729-15 15c0 7.934 6.195 14.431 14 14.949V58a1 1 0 102 0V29.949c7.805-.518 14-7.015 14-14.949zm-15 13c-7.168 0-13-5.832-13-13s5.832-13 13-13 13 5.832 13 13-5.832 13-13 13z"/><path d="M24.5 7c-2.206 0-4 1.794-4 4s1.794 4 4 4 4-1.794 4-4-1.794-4-4-4zm0 6c-1.103 0-2-.897-2-2s.897-2 2-2 2 .897 2 2-.897 2-2 2z"/></svg><svg viewBox="0 0 512 512" id="profile" xmlns="http://www.w3.org/2000/svg"><path d="M437.02 330.98c-27.883-27.882-61.071-48.523-97.281-61.018C378.521 243.251 404 198.548 404 148 404 66.393 337.607 0 256 0S108 66.393 108 148c0 50.548 25.479 95.251 64.262 121.962-36.21 12.495-69.398 33.136-97.281 61.018C26.629 379.333 0 443.62 0 512h40c0-119.103 96.897-216 216-216s216 96.897 216 216h40c0-68.38-26.629-132.667-74.98-181.02zM256 256c-59.551 0-108-48.448-108-108S196.449 40 256 40s108 48.448 108 108-48.449 108-108 108z"/></svg><svg fill="#939393" viewBox="0 0 512 512" id="signal" xmlns="http://www.w3.org/2000/svg"><path d="M436.3 75.7C388 27.401 324.101 0 256 0 115.343 0 0 115.116 0 256c0 140.958 115.075 256 256 256 140.306 0 256-114.589 256-256 0-68.101-27.4-132.001-75.7-180.3zM256 451c-107.786 0-195-86.985-195-195 0-42.001 13.2-81.901 37.5-114.901l272.401 272.1C337.899 437.8 298.001 451 256 451zm157.2-80.101L141.099 98.5C174.101 74.2 213.999 61 256 61c107.789 0 195 86.985 195 195 0 41.999-13.2 81.899-37.8 114.899z"/></svg><svg fill="red" viewBox="0 0 512 512" id="signal-red" xmlns="http://www.w3.org/2000/svg"><path d="M436.3 75.7C388 27.401 324.101 0 256 0 115.343 0 0 115.116 0 256c0 140.958 115.075 256 256 256 140.306 0 256-114.589 256-256 0-68.101-27.4-132.001-75.7-180.3zM256 451c-107.786 0-195-86.985-195-195 0-42.001 13.2-81.901 37.5-114.901l272.401 272.1C337.899 437.8 298.001 451 256 451zm157.2-80.101L141.099 98.5C174.101 74.2 213.999 61 256 61c107.789 0 195 86.985 195 195 0 41.999-13.2 81.899-37.8 114.899z"/></svg><svg fill="#939393" viewBox="0 0 512 512" id="smile" xmlns="http://www.w3.org/2000/svg"><path d="M437.02 74.98C388.667 26.629 324.38 0 256 0S123.333 26.629 74.98 74.98C26.629 123.333 0 187.62 0 256s26.629 132.668 74.98 181.02C123.333 485.371 187.62 512 256 512s132.667-26.629 181.02-74.98C485.371 388.668 512 324.38 512 256s-26.629-132.667-74.98-181.02zM256 472c-119.103 0-216-96.897-216-216S136.897 40 256 40s216 96.897 216 216-96.897 216-216 216z"/><path d="M368.993 285.776c-.072.214-7.298 21.626-25.02 42.393C321.419 354.599 292.628 368 258.4 368c-34.475 0-64.195-13.561-88.333-40.303-18.92-20.962-27.272-42.54-27.33-42.691l-37.475 13.99c.42 1.122 10.533 27.792 34.013 54.273C171.022 389.074 212.215 408 258.4 408c46.412 0 86.904-19.076 117.099-55.166 22.318-26.675 31.165-53.55 31.531-54.681l-38.037-12.377z"/><circle cx="168" cy="180.12" r="32"/><circle cx="344" cy="180.12" r="32"/></svg><svg fill="#939393" viewBox="0 0 64 64" id="sort" xmlns="http://www.w3.org/2000/svg"><path d="M31.414 15.586l-7-7a2 2 0 00-2.828 0l-7 7a2 2 0 102.828 2.828L21 14.828V54a2 2 0 004 0V14.828l3.586 3.586c.39.391.902.586 1.414.586s1.024-.195 1.414-.586a2 2 0 000-2.828zM49.414 45.586a2 2 0 00-2.828 0L43 49.172V10a2 2 0 00-4 0v39.172l-3.586-3.586a2 2 0 10-2.828 2.828l7 7c.391.391.902.586 1.414.586s1.023-.195 1.414-.586l7-7a2 2 0 000-2.828z"/></svg><svg viewBox="0 -10 511.987 511" id="star" xmlns="http://www.w3.org/2000/svg"><path d="M114.594 491.14c-5.61 0-11.18-1.75-15.934-5.187a27.223 27.223 0 01-10.582-28.094l32.938-145.09L9.312 214.81a27.188 27.188 0 01-7.976-28.907 27.208 27.208 0 0123.402-18.71l147.797-13.419L230.97 17.027C235.277 6.98 245.089.492 255.992.492s20.715 6.488 25.024 16.512l58.433 136.77 147.774 13.417c10.882.98 20.054 8.344 23.425 18.711 3.372 10.368.254 21.739-7.957 28.907L390.988 312.75l32.938 145.086c2.414 10.668-1.727 21.7-10.578 28.098-8.832 6.398-20.61 6.89-29.91 1.3l-127.446-76.16-127.445 76.203c-4.309 2.559-9.11 3.864-13.953 3.864zm141.398-112.874c4.844 0 9.64 1.3 13.953 3.859l120.278 71.938-31.086-136.942a27.21 27.21 0 018.62-26.516l105.473-92.5-139.543-12.671a27.18 27.18 0 01-22.613-16.493L255.992 39.895 200.844 168.96c-3.883 9.195-12.524 15.512-22.547 16.43L38.734 198.062l105.47 92.5c7.554 6.614 10.858 16.77 8.62 26.54l-31.062 136.937 120.277-71.914c4.309-2.559 9.11-3.86 13.953-3.86zm-84.586-221.848s0 .023-.023.043zm169.13-.063l.023.043c0-.023 0-.023-.024-.043zm0 0"/></svg><svg viewBox="0 0 24 24" id="users" xmlns="http://www.w3.org/2000/svg"><path d="M20 12c-1.1 0-2-.9-2-2s.9-2 2-2 2 .9 2 2-.9 2-2 2zm0-3c-.6 0-1 .4-1 1s.4 1 1 1 1-.4 1-1-.4-1-1-1zM23.5 17c-.3 0-.5-.2-.5-.5v-1c0-.8-.7-1.5-1.5-1.5h-3c-.3 0-.5-.2-.5-.5s.2-.5.5-.5h3c1.4 0 2.5 1.1 2.5 2.5v1c0 .3-.2.5-.5.5zM4 12c-1.1 0-2-.9-2-2s.9-2 2-2 2 .9 2 2-.9 2-2 2zm0-3c-.6 0-1 .4-1 1s.4 1 1 1 1-.4 1-1-.4-1-1-1zM.5 17c-.3 0-.5-.2-.5-.5v-1C0 14.1 1.1 13 2.5 13h3c.3 0 .5.2.5.5s-.2.5-.5.5h-3c-.8 0-1.5.7-1.5 1.5v1c0 .3-.2.5-.5.5zM12 12.5c-1.7 0-3-1.3-3-3s1.3-3 3-3 3 1.3 3 3-1.3 3-3 3zm0-5c-1.1 0-2 .9-2 2s.9 2 2 2 2-.9 2-2-.9-2-2-2zM17 19c-.3 0-.5-.2-.5-.5v-2c0-.8-.7-1.5-1.5-1.5H9c-.8 0-1.5.7-1.5 1.5v2c0 .3-.2.5-.5.5s-.5-.2-.5-.5v-2C6.5 15.1 7.6 14 9 14h6c1.4 0 2.5 1.1 2.5 2.5v2c0 .3-.2.5-.5.5z"/></svg></svg>