<?xml version="1.0" encoding="utf-8"?><svg viewBox="0 0 26 24" xmlns="http://www.w3.org/2000/svg" xmlns:xlink="http://www.w3.org/1999/xlink"><style>:root>svg{display:none}:root>svg:target{display:block}</style><svg fill="none" viewBox="0 0 6 9" id="arrow-left" xmlns="http://www.w3.org/2000/svg"><path d="M5 1L2 4.5 5 8" stroke="#939393" stroke-width="1.8" stroke-linecap="round"/></svg><svg fill="none" viewBox="0 0 6 9" id="arrow-right" xmlns="http://www.w3.org/2000/svg"><path d="M1 8l3-3.5L1 1" stroke="#939393" stroke-width="1.8" stroke-linecap="round"/></svg><svg viewBox="0 0 24 24" id="attach" xmlns="http://www.w3.org/2000/svg"><path d="M15.306 8.146A.967.967 0 0013.94 6.78l-7.823 7.823a3.045 3.045 0 000 4.301c.593.593 1.372.89 2.15.89.779 0 1.558-.297 2.15-.89l3.74-3.738 6.292-6.293a4.618 4.618 0 000-6.523 4.618 4.618 0 00-6.524 0l-8.638 8.638c-.016.015-.03.032-.044.048l-1.416 1.417a6.14 6.14 0 00-1.805 4.372c0 1.655.641 3.208 1.805 4.371A6.139 6.139 0 008.198 23a6.14 6.14 0 004.372-1.805l7.122-7.122a.967.967 0 00-1.367-1.367l-7.123 7.122a4.217 4.217 0 01-3.004 1.238c-1.14 0-2.206-.44-3.005-1.238a4.218 4.218 0 01-1.238-3.004c0-1.14.44-2.207 1.238-3.005l7.123-7.123c.015-.015.03-.032.043-.048l2.932-2.932a2.682 2.682 0 013.79 0 2.683 2.683 0 010 3.79l-2.208 2.206-7.823 7.824a1.109 1.109 0 01-1.567-1.567l7.823-7.823z" fill="#939393" fill-rule="nonzero"/></svg><svg fill="none" viewBox="0 0 9 6" id="caret" xmlns="http://www.w3.org/2000/svg"><path d="M1 1l3.5 3L8 1" stroke="#939393" stroke-width="1.8" stroke-linecap="round"/></svg><svg fill="none" viewBox="0 0 12 9" id="double-arrow-left" xmlns="http://www.w3.org/2000/svg"><path d="M5 1L2 4.5 5 8M11 1L8 4.5 11 8" stroke="#939393" stroke-width="1.8" stroke-linecap="round"/></svg><svg fill="none" viewBox="0 0 12 9" id="double-arrow-right" xmlns="http://www.w3.org/2000/svg"><path d="M7 8l3-3.5L7 1M1 8l3-3.5L1 1" stroke="#939393" stroke-width="1.8" stroke-linecap="round"/></svg><svg fill="none" viewBox="0 0 26 7" id="line-arrow-right" xmlns="http://www.w3.org/2000/svg"><path d="M26 3.5L21 .613v5.774L26 3.5zM0 4h21.5V3H0v1z" fill="#979797"/></svg></svg>